PathFileType	3	(X/Y/Z)	C:\Users\koon_\Desktop\
DataRate	CameraRate	NumFrames	NumMarkers	Units	OrigDataRate	OrigDataStartFrame	OrigNumFrames
100.0	100.0	5	27	mm	100.0	827	3304	
Frame#	Time	GM:LFHD			GM:RFHD			GM:LBHD			GM:RBHD			GM:C7			GM:T10			GM:CLAV			GM:STRN			GM:RBAK			GM:LSHO			GM:LUPA			GM:LELB			GM:LFRA			GM:LWRA			GM:LWRB			GM:LFIN			GM:RSHO			GM:RUPA			GM:RELB			GM:RFRA			GM:RWRA			GM:RWRB			GM:RFIN			GM:LASI			GM:RASI			GM:LPSI			GM:RPSI			
		X1	Y1	Z1	X2	Y2	Z2	X3	Y3	Z3	X4	Y4	Z4	X5	Y5	Z5	X6	Y6	Z6	X7	Y7	Z7	X8	Y8	Z8	X9	Y9	Z9	X10	Y10	Z10	X11	Y11	Z11	X12	Y12	Z12	X13	Y13	Z13	X14	Y14	Z14	X15	Y15	Z15	X16	Y16	Z16	X17	Y17	Z17	X18	Y18	Z18	X19	Y19	Z19	X20	Y20	Z20	X21	Y21	Z21	X22	Y22	Z22	X23	Y23	Z23	X24	Y24	Z24	X25	Y25	Z25	X26	Y26	Z26	X27	Y27	Z27	
827	8.26	99.446663	1549.626	-12.919351	-47.399578	1536.1218	-59.073036	139.7733	1546.9734	-140.30879	-20.043381	1533.5352	-171.76352	84.138878	1383.902	-213.4355	99.801689	1199.6345	-284.87836	59.88876	1301.2482	-65.827896	54.35442	1148.2557	-45.594749	-3.4933031	1284.8746	-291.2822	222.06758	1362.2031	-107.03467	286.75046	1332.6395	-35.146568	347.98242	1219.9993	127.22919	251.43858	1283.0587	224.66058	223.94397	1301.6239	290.42334	228.29512	1240.7308	312.50296	209.97958	1282.3557	387.12555	-91.579033	1354.5759	-152.08203	-201.39795	1260.924	-16.865137	-262.26813	1202.0594	44.466599	-209.24785	1264.5439	96.132889	-175.85782	1288.5881	220.795	-179.38844	1231.1543	240.9236	-176.50624	1272.6338	314.94089	157.16019	862.45337	-57.384594	-122.33345	888.63336	-151.30562	157.42065	888.61206	-277.03177	10.028898	884.59625	-329.73221
828	8.27	95.543388	1549.8579	-11.54583	-50.085209	1536.2168	-61.601856	139.16568	1547.0352	-137.84915	-19.633253	1533.4277	-173.50009	84.322189	1384.0203	-212.69374	100.62894	1199.6113	-283.85196	58.205982	1301.365	-65.290154	52.443035	1148.4733	-45.072754	-2.0094323	1284.8716	-292.13486	221.29115	1362.2375	-104.82056	286.3277	1331.6479	-33.074608	349.49731	1217.7729	127.821	249.30191	1280.6949	221.52754	219.3542	1299.6887	286.11926	222.5975	1238.8159	308.50446	201.85361	1280.5959	382.28058	-92.760902	1354.0457	-154.32494	-206.21204	1257.1279	-23.707588	-268.93021	1197.2271	35.186916	-215.19197	1259.7971	86.287849	-180.38025	1284.5536	210.01021	-183.37483	1227.1157	230.41687	-179.07959	1268.6323	304.50006	155.88684	862.49091	-55.678246	-122.76756	888.51184	-152.28352	158.18265	888.71228	-275.28979	11.174347	884.47369	-329.45654
829	8.28	91.511353	1550.1133	-10.133783	-52.815044	1536.639	-64.074409	138.4269	1547.0909	-135.22353	-19.346674	1533.3176	-175.29428	84.488708	1384.1161	-211.88739	101.51314	1199.553	-282.79907	56.34621	1301.4094	-64.65303	50.355511	1148.6091	-44.575294	-0.46309817	1284.775	-292.8027	220.46442	1362.3899	-102.56828	285.86349	1330.7489	-31.074543	350.85928	1215.7573	128.53197	247.09433	1278.7456	218.33037	214.4113	1297.694	281.53467	216.81155	1236.8872	304.1965	193.38615	1278.8156	376.98392	-93.919502	1353.5625	-156.55258	-211.14822	1253.3864	-31.046373	-275.55655	1192.4749	25.246365	-221.24722	1255.1418	75.860954	-186.05562	1280.281	198.49481	-187.70634	1222.8896	219.21498	-182.21594	1264.549	293.30231	154.56239	862.50128	-53.888519	-123.22215	888.45648	-153.18336	159.01964	888.90826	-273.50659	12.361927	884.31714	-329.16211
830	8.29	87.292	1550.3634	-8.8091736	-55.170094	1536.6421	-66.721634	137.64645	1547.1456	-132.46024	-18.733908	1532.9717	-176.80817	84.690742	1384.1661	-210.96469	102.39219	1199.4946	-281.67563	54.495018	1301.438	-64.014107	48.227474	1148.7095	-44.066509	1.1778564	1284.7214	-293.49591	219.49338	1362.6029	-100.33633	285.27841	1329.9463	-28.926157	352.02347	1213.863	129.40297	244.31293	1276.27	215.14761	209.30029	1295.6595	276.72266	210.87221	1235.0029	299.7402	184.85355	1276.9788	371.38791	-95.034851	1353.0505	-158.83777	-216.0428	1249.6848	-38.684055	-282.2049	1187.7076	14.62681	-227.56363	1250.514	65.010597	-191.29028	1276.09	186.71266	-192.34143	1218.6776	207.74849	-185.60445	1260.4072	281.59616	153.14894	862.54431	-52.095078	-123.62691	888.3327	-154.19496	159.80804	889.01483	-271.71201	13.590489	884.14624	-328.6507
831	8.3	82.919075	1550.5646	-7.3496423	-57.650318	1536.656	-69.283134	136.66039	1547.2637	-129.64183	-18.632521	1532.8947	-178.64384	84.800926	1384.1798	-210.14082	103.29978	1199.4691	-280.44061	52.576057	1301.545	-63.45932	46.124508	1148.9131	-43.509415	2.8088758	1284.6406	-294.14441	218.33099	1362.8224	-97.993851	284.48944	1329.167	-26.666279	352.99121	1211.9954	130.40367	241.53239	1273.9237	211.66183	204.10452	1293.5929	271.61255	204.74222	1233.077	294.95944	176.52303	1275.1478	365.42154	-96.151306	1352.4501	-161.1162	-221.20197	1245.9189	-46.785767	-288.72211	1183.051	3.4322412	-234.00557	1245.9293	53.603485	-196.90967	1271.8627	174.5722	-197.46245	1214.3982	195.60524	-189.34023	1256.231	269.47568	151.64041	862.599	-50.282604	-124.13552	888.22375	-155.30293	160.58511	889.14819	-269.79892	14.834193	883.95868	-328.06107
